<?xml version="1.0" standalone="no"?>
<!DOCTYPE svg PUBLIC "-//W3C//DTD SVG 20010904//EN"
 "http://www.w3.org/TR/2001/REC-SVG-20010904/DTD/svg10.dtd">
<svg version="1.0" xmlns="http://www.w3.org/2000/svg"
 width="157.000000pt" height="157.000000pt" viewBox="0 0 157.000000 157.000000"
 preserveAspectRatio="xMidYMid meet">
<metadata>
Created by potrace 1.11, written by Peter Selinger 2001-2013
</metadata>
<g transform="translate(0.000000,157.000000) scale(0.100000,-0.100000)"
fill="#000000" stroke="none">
<path d="M909 1545 c-73 -19 -167 -75 -230 -135 -33 -30 -59 -60 -59 -67 0 -6
-4 -13 -9 -15 -5 -1 -11 -10 -13 -18 -2 -8 -9 -21 -16 -28 -7 -8 -10 -17 -7
-21 4 -3 14 3 24 14 9 11 23 21 31 23 8 2 20 8 25 15 6 7 19 14 30 15 11 2 36
9 55 16 48 16 164 11 225 -9 28 -10 69 -30 92 -46 41 -29 115 -110 119 -133 2
-6 7 -26 13 -45 17 -54 7 -198 -17 -261 -43 -110 -143 -209 -252 -251 -47 -18
-230 -40 -230 -28 0 2 27 33 61 69 67 72 70 64 -32 94 -31 9 -73 27 -92 40
-19 13 -39 21 -43 18 -4 -4 -4 -2 -1 4 6 11 -27 45 -37 38 -3 -2 -4 -1 -2 2 2
3 -7 22 -20 41 -61 91 -61 221 1 315 l25 38 -25 0 c-14 0 -25 -4 -25 -8 0 -4
-10 -9 -22 -9 -13 -1 -28 -9 -34 -17 -6 -9 -14 -13 -17 -10 -3 3 -16 -3 -28
-15 -13 -12 -26 -21 -31 -21 -4 0 -8 -7 -8 -15 0 -8 -4 -14 -9 -13 -5 2 -21
-12 -35 -31 l-26 -35 -32 72 -32 72 -38 -42 c-21 -24 -50 -68 -65 -98 -23 -47
-27 -70 -29 -160 -4 -147 18 -252 78 -373 25 -49 28 -63 19 -88 -5 -16 -8 -29
-6 -29 10 0 -92 -192 -131 -247 -25 -35 -43 -63 -41 -63 2 0 41 13 88 29 90
30 192 78 197 92 2 5 8 7 13 3 5 -3 9 0 9 5 0 6 3 10 8 9 4 -1 17 3 30 10 30
17 28 5 -12 -56 -19 -28 -32 -52 -28 -52 4 0 2 -4 -4 -8 -10 -7 -74 -99 -74
-107 0 -4 14 -3 95 9 11 2 20 4 20 5 0 2 9 5 20 7 58 13 109 37 205 92 55 32
140 72 169 78 37 8 124 11 136 5 6 -3 15 -6 20 -7 35 -3 75 -18 75 -27 0 -6 3
-7 7 -4 3 4 17 0 30 -8 13 -9 23 -12 23 -8 0 5 5 0 11 -10 5 -9 16 -17 23 -17
8 0 19 -7 26 -15 7 -8 16 -12 21 -9 5 3 9 1 9 -3 0 -5 14 -17 30 -26 17 -10
30 -15 30 -11 0 3 6 2 13 -4 10 -9 117 -24 117 -17 0 1 -8 20 -17 41 -9 22
-17 41 -18 44 0 3 -4 11 -8 18 -5 6 -6 12 -2 12 3 0 -1 14 -10 30 -9 17 -13
30 -11 30 3 0 1 11 -4 25 -5 14 -12 36 -15 48 -2 12 -9 40 -15 62 -6 22 -12
54 -14 70 -3 17 -7 47 -11 68 -6 34 -4 39 17 45 59 15 161 81 207 135 9 10 26
30 39 44 55 60 101 189 104 293 1 59 -1 81 -17 160 -9 48 -75 166 -117 211
-56 59 -138 113 -213 141 -71 26 -233 33 -306 13z"/>
</g>
</svg>
